<svg width="36" height="36" viewBox="0 0 36 36" fill="none" xmlns="http://www.w3.org/2000/svg">
<path d="M24 19.5V31.5" stroke="#00C390" stroke-width="2" stroke-linecap="round" stroke-linejoin="round"/>
<path d="M12 19.5V31.5" stroke="#00C390" stroke-width="2" stroke-linecap="round" stroke-linejoin="round"/>
<path d="M18 22.5V34.5" stroke="#00C390" stroke-width="2" stroke-linecap="round" stroke-linejoin="round"/>
<path d="M30 24.87C31.5769 24.1794 32.8682 22.9673 33.6571 21.4373C34.4461 19.9073 34.6847 18.1524 34.3329 16.4673C33.9811 14.7821 33.0603 13.2693 31.7251 12.1827C30.3898 11.0962 28.7215 10.502 27 10.5H25.11C24.6345 8.65878 23.7283 6.95692 22.466 5.5347C21.2036 4.11247 19.6214 3.01061 17.8497 2.31993C16.0779 1.62925 14.1674 1.36952 12.2755 1.56216C10.3837 1.7548 8.56472 2.39429 6.96854 3.42792C5.37237 4.46155 4.0447 5.85972 3.09496 7.50719C2.14522 9.15466 1.60061 11.0043 1.50602 12.9035C1.41143 14.8028 1.76956 16.6973 2.55091 18.431C3.33225 20.1647 4.51443 21.6879 6 22.875" stroke="#00C390" stroke-width="2" stroke-linecap="round" stroke-linejoin="round"/>
</svg>
