<svg width="34" height="37" viewBox="0 0 34 37" fill="none" xmlns="http://www.w3.org/2000/svg">
<path d="M27 12C29.7614 12 32 9.76142 32 7C32 4.23857 29.7614 2 27 2C24.2386 2 22 4.23857 22 7C22 9.76142 24.2386 12 27 12Z" stroke="black" stroke-width="3" stroke-linecap="round" stroke-linejoin="round"/>
<path d="M7 23.6667C9.76142 23.6667 12 21.4282 12 18.6667C12 15.9053 9.76142 13.6667 7 13.6667C4.23857 13.6667 2 15.9053 2 18.6667C2 21.4282 4.23857 23.6667 7 23.6667Z" stroke="black" stroke-width="3" stroke-linecap="round" stroke-linejoin="round"/>
<path d="M27 35.3332C29.7614 35.3332 32 33.0947 32 30.3332C32 27.5718 29.7614 25.3333 27 25.3333C24.2386 25.3333 22 27.5718 22 30.3332C22 33.0947 24.2386 35.3332 27 35.3332Z" stroke="black" stroke-width="3" stroke-linecap="round" stroke-linejoin="round"/>
<path d="M11.3163 21.1833L22.6997 27.8167" stroke="black" stroke-width="3" stroke-linecap="round" stroke-linejoin="round"/>
<path d="M22.683 9.5166L11.3163 16.1499" stroke="black" stroke-width="3" stroke-linecap="round" stroke-linejoin="round"/>
</svg>
