<svg width="11" height="36" viewBox="0 0 11 36" fill="none" xmlns="http://www.w3.org/2000/svg">
<path d="M33.81 9.63C33.6318 8.91811 33.2689 8.26586 32.758 7.73911C32.2471 7.21236 31.6061 6.82978 30.9 6.63C28.32 6 18 6 18 6C18 6 7.68002 6 5.10002 6.69C4.39389 6.88978 3.75298 7.27236 3.24204 7.79911C2.73109 8.32586 2.3682 8.97811 2.19002 9.69C1.71784 12.3083 1.48687 14.9645 1.50002 17.625C1.48319 20.3056 1.71417 22.982 2.19002 25.62C2.38646 26.3098 2.75748 26.9372 3.26723 27.4417C3.77699 27.9462 4.40825 28.3107 5.10002 28.5C7.68002 29.19 18 29.19 18 29.19C18 29.19 28.32 29.19 30.9 28.5C31.6061 28.3002 32.2471 27.9176 32.758 27.3909C33.2689 26.8641 33.6318 26.2119 33.81 25.5C34.2786 22.9014 34.5095 20.2655 34.5 17.625C34.5169 14.9444 34.2859 12.268 33.81 9.63V9.63Z" stroke="#00C390" stroke-width="2" stroke-linecap="round" stroke-linejoin="round"/>
</svg>
