<svg width="15" height="15" viewBox="0 0 15 15" fill="none" xmlns="http://www.w3.org/2000/svg">
<g clip-path="url(#clip0)">
<path d="M5.53026 14.0335C3.47145 14.0217 1.76843 9.81893 1.76843 7.67857C1.76843 4.1823 4.39123 3.41687 5.40203 3.41687C5.85756 3.41687 6.34397 3.59576 6.77299 3.75406C7.073 3.86448 7.38328 3.97847 7.55585 3.97847C7.65914 3.97847 7.90254 3.88151 8.11745 3.79643C8.57576 3.61397 9.14606 3.38721 9.81017 3.38721C9.81135 3.38721 9.81295 3.38721 9.81411 3.38721C10.31 3.38721 11.8136 3.49604 12.7175 4.85354L12.9293 5.17174L12.6245 5.40169C12.1892 5.73018 11.3948 6.32939 11.3948 7.51632C11.3948 8.92211 12.2944 9.46275 12.7266 9.72277C12.9174 9.83754 13.1149 9.95588 13.1149 10.2147C13.1149 10.3837 11.7661 14.0126 9.80738 14.0126C9.32811 14.0126 8.98933 13.8685 8.6905 13.7415C8.38814 13.6128 8.12731 13.502 7.69631 13.502C7.47784 13.502 7.20158 13.6053 6.90911 13.715C6.50943 13.8641 6.05704 14.0335 5.54372 14.0335H5.53026Z" fill="black"/>
<path d="M10.0176 0.200195C10.0686 2.03949 8.75324 3.31551 7.43939 3.23548C7.2229 1.76766 8.75307 0.200195 10.0176 0.200195Z" fill="black"/>
</g>
<defs>
<clipPath id="clip0">
<rect width="13.8333" height="13.8333" fill="white" transform="translate(0.525024 0.200195)"/>
</clipPath>
</defs>
</svg>
