<svg width="36" height="36" viewBox="0 0 36 36" fill="none" xmlns="http://www.w3.org/2000/svg">
<path d="M30 26.37C31.5769 25.6794 32.8681 24.4673 33.6571 22.9373C34.4461 21.4073 34.6847 19.6524 34.3329 17.9673C33.9811 16.2821 33.0603 14.7693 31.7251 13.6827C30.3898 12.5962 28.7215 12.002 27 12H25.11C24.6345 10.1588 23.7283 8.45692 22.466 7.0347C21.2036 5.61247 19.6214 4.51061 17.8496 3.81993C16.0779 3.12925 14.1673 2.86952 12.2755 3.06216C10.3837 3.2548 8.5647 3.89429 6.96853 4.92792C5.37236 5.96155 4.04468 7.35972 3.09495 9.00719C2.14521 10.6547 1.6006 12.5043 1.50601 14.4035C1.41142 16.3028 1.76955 18.1973 2.5509 19.931C3.33224 21.6647 4.51442 23.1879 5.99999 24.375" stroke="#00C390" stroke-width="2" stroke-linecap="round" stroke-linejoin="round"/>
<path d="M12 24H12.015" stroke="#00C390" stroke-width="2" stroke-linecap="round" stroke-linejoin="round"/>
<path d="M12 30H12.015" stroke="#00C390" stroke-width="2" stroke-linecap="round" stroke-linejoin="round"/>
<path d="M18 27H18.015" stroke="#00C390" stroke-width="2" stroke-linecap="round" stroke-linejoin="round"/>
<path d="M18 33H18.015" stroke="#00C390" stroke-width="2" stroke-linecap="round" stroke-linejoin="round"/>
<path d="M24 24H24.015" stroke="#00C390" stroke-width="2" stroke-linecap="round" stroke-linejoin="round"/>
<path d="M24 30H24.015" stroke="#00C390" stroke-width="2" stroke-linecap="round" stroke-linejoin="round"/>
</svg>
