<svg width="208" height="208" viewBox="0 0 208 208" fill="none" xmlns="http://www.w3.org/2000/svg">
<path d="M108.062 18.6875V4.0625C108.062 1.81878 106.243 0 104 0C101.757 0 99.9375 1.81878 99.9375 4.0625V18.6875C99.9375 20.9312 101.757 22.75 104 22.75C106.243 22.75 108.062 20.9312 108.062 18.6875Z" fill="#00C390"/>
<path d="M180.771 94.6383L195.396 94.6383C197.639 94.6383 199.458 92.8191 199.458 90.5758C199.458 88.3325 197.639 86.5133 195.396 86.5133L180.771 86.5133C178.527 86.5133 176.708 88.3325 176.708 90.5758C176.708 92.8191 178.527 94.6383 180.771 94.6383Z" fill="#00C390"/>
<path d="M18.7881 94.6383L33.4131 94.6383C35.6568 94.6383 37.4756 92.8191 37.4756 90.5758C37.4756 88.3325 35.6568 86.5133 33.4131 86.5133L18.7881 86.5133C16.5444 86.5133 14.7256 88.3325 14.7256 90.5758C14.7256 92.8191 16.5444 94.6383 18.7881 94.6383Z" fill="#00C390"/>
<path d="M69.4686 32.0048C71.4117 30.8831 72.0779 28.3989 70.9563 26.4554L64.8625 15.897C63.7409 13.9535 61.2562 13.2872 59.3131 14.4089C57.3701 15.5305 56.7038 18.0147 57.8255 19.9582L63.9192 30.5167C65.0372 32.4541 67.5202 33.1297 69.4686 32.0048Z" fill="#00C390"/>
<path d="M36.611 51.7315L26.0526 45.6377C24.1074 44.5157 21.624 45.1823 20.5032 47.1258C19.3815 49.0689 20.0478 51.5535 21.9909 52.6752L32.5493 58.7689C34.4843 59.8853 36.9726 59.2329 38.0987 57.2808C39.2204 55.3373 38.5541 52.8531 36.611 51.7315Z" fill="#00C390"/>
<path d="M144.081 30.5171L150.175 19.9586C151.297 18.0155 150.63 15.5309 148.687 14.4093C146.743 13.2872 144.26 13.9543 143.138 15.8974L137.044 26.4558C135.923 28.3989 136.589 30.8835 138.532 32.0052C140.467 33.1211 142.955 32.4687 144.081 30.5171Z" fill="#00C390"/>
<path d="M175.451 58.7685L186.009 52.6748C187.953 51.5531 188.619 49.0689 187.497 47.1254C186.375 45.1823 183.891 44.5152 181.948 45.6373L171.389 51.731C169.446 52.8527 168.78 55.3369 169.902 57.2804C171.02 59.2178 173.503 59.8934 175.451 58.7685Z" fill="#00C390"/>
<path d="M99.9377 162.113L99.9377 176.738C99.9377 178.981 101.757 180.8 104 180.8C106.244 180.8 108.063 178.981 108.063 176.738L108.063 162.113C108.063 159.869 106.244 158.05 104 158.05C101.757 158.05 99.9377 159.869 99.9377 162.113Z" fill="#00C390"/>
<path d="M138.531 148.795C136.588 149.917 135.922 152.401 137.044 154.345L143.137 164.903C144.259 166.847 146.744 167.513 148.687 166.391C150.63 165.27 151.296 162.785 150.175 160.842L144.081 150.283C142.963 148.346 140.48 147.67 138.531 148.795Z" fill="#00C390"/>
<path d="M171.389 129.069L181.948 135.162C183.893 136.284 186.376 135.618 187.497 133.674C188.619 131.731 187.952 129.247 186.009 128.125L175.451 122.031C173.516 120.915 171.028 121.567 169.902 123.519C168.78 125.463 169.446 127.947 171.389 129.069Z" fill="#00C390"/>
<path d="M63.9187 150.283L57.825 160.841C56.7033 162.785 57.3696 165.269 59.3127 166.391C61.2574 167.513 63.7404 166.846 64.862 164.903L70.9558 154.344C72.0774 152.401 71.4112 149.917 69.4681 148.795C67.5327 147.679 65.0453 148.331 63.9187 150.283Z" fill="#00C390"/>
<path d="M32.5492 122.032L21.9908 128.125C20.0477 129.247 19.3814 131.731 20.5031 133.675C21.6252 135.618 24.109 136.285 26.0525 135.163L36.6109 129.069C38.554 127.947 39.2203 125.463 38.0986 123.52C36.9806 121.582 34.4976 120.907 32.5492 122.032Z" fill="#00C390"/>
<path d="M104 124.094C122.214 124.094 136.979 109.329 136.979 91.1151C136.979 72.9011 122.214 58.1357 104 58.1357C85.7859 58.1357 71.0205 72.9011 71.0205 91.1151C71.0205 109.329 85.7859 124.094 104 124.094Z" stroke="#00C390" stroke-width="6.59587" stroke-linecap="round" stroke-linejoin="round"/>
<path d="M71.0205 91.1151H136.979" stroke="#00C390" stroke-width="6.59587" stroke-linecap="round" stroke-linejoin="round"/>
<path d="M104 58.1357C112.249 67.1666 116.937 78.8864 117.192 91.1151C116.937 103.344 112.249 115.064 104 124.094C95.7508 115.064 91.0629 103.344 90.8081 91.1151C91.0629 78.8864 95.7508 67.1666 104 58.1357V58.1357Z" stroke="#00C390" stroke-width="6.59587" stroke-linecap="round" stroke-linejoin="round"/>
</svg>
