<svg width="234" height="152" viewBox="0 0 234 152" fill="none" xmlns="http://www.w3.org/2000/svg">
<path d="M42.792 144.364C42.792 146.596 44.61 148.198 47.292 148.198C49.506 148.198 51.702 147.01 51.756 144.562C51.81 143.392 51.36 141.682 48.354 140.818L46.878 140.35C45.654 140.008 45.546 139.414 45.546 139.09C45.546 138.352 46.23 137.848 47.148 137.848C48.21 137.848 48.75 138.406 48.75 139.252H51.378C51.378 136.876 49.578 135.454 47.184 135.454C44.808 135.454 42.918 136.948 42.918 139.162C42.918 140.296 43.386 141.862 46.122 142.726L47.616 143.14C48.858 143.5 49.128 143.986 49.11 144.544C49.092 145.354 48.372 145.858 47.292 145.858C46.086 145.858 45.492 145.156 45.438 144.364H42.792ZM59.8566 148H62.3406V139.594H59.8566V140.53C59.1726 139.612 57.9666 139.414 57.4086 139.414C55.2666 139.414 53.1246 141.106 53.1246 143.788C53.1246 146.47 55.2666 148.162 57.4086 148.162C58.0386 148.162 59.3346 147.838 59.8566 147.046V148ZM55.7166 143.788C55.7166 142.582 56.7606 141.79 57.8226 141.79C58.8486 141.79 59.8566 142.546 59.8566 143.788C59.8566 145.048 58.8486 145.786 57.8226 145.786C56.7606 145.786 55.7166 144.994 55.7166 143.788ZM67.098 148H69.24L72.804 139.594H70.122L68.178 144.814L66.216 139.594H63.552L67.098 148ZM79.7298 145.228C79.3158 145.786 78.5958 146.02 77.8938 146.02C76.9938 146.02 75.9678 145.588 75.8238 144.616H81.9798C81.9978 144.4 82.0158 144.058 82.0158 143.842C82.0158 141.196 80.1078 139.414 77.7138 139.414C75.3198 139.414 73.3218 141.106 73.3218 143.77C73.3218 146.416 75.3198 148.18 77.7138 148.18C79.1538 148.18 80.6838 147.73 81.5478 146.47L79.7298 145.228ZM75.8598 143.05C76.0578 141.97 77.0478 141.61 77.7318 141.61C78.4518 141.61 79.3518 142.024 79.4958 143.05H75.8598ZM89.7163 143.77C89.7163 144.994 88.8343 145.804 87.7723 145.804C86.7103 145.804 85.8283 145.012 85.8283 143.77C85.8283 142.546 86.6923 141.772 87.7723 141.772C88.7803 141.772 89.7163 142.528 89.7163 143.77ZM92.2543 148V135.022H89.7703V140.62C89.3563 139.846 88.3663 139.414 87.3043 139.414C85.1443 139.414 83.2363 141.124 83.2363 143.824C83.2363 146.488 85.1443 148.18 87.3043 148.18C88.3663 148.18 89.3563 147.73 89.7703 146.956V148H92.2543Z" fill="black"/>
<path d="M70.1998 53.2892C69.8093 52.8987 69.1761 52.8987 68.7856 53.2892L62.4216 59.6531C62.0311 60.0437 62.0311 60.6768 62.4216 61.0674C62.8121 61.4579 63.4453 61.4579 63.8358 61.0674L69.4927 55.4105L75.1495 61.0674C75.5401 61.4579 76.1732 61.4579 76.5637 61.0674C76.9543 60.6768 76.9543 60.0437 76.5637 59.6531L70.1998 53.2892ZM70.4927 123.004L70.4927 53.9963L68.4927 53.9963L68.4927 123.004L70.4927 123.004Z" fill="#00C390"/>
<rect width="234" height="43.056" rx="21.528" fill="#00C390"/>
<g clip-path="url(#clip0)">
<path d="M23.7119 19.968L29.3279 15.6L34.9439 19.968V26.832C34.9439 27.163 34.8124 27.4804 34.5784 27.7144C34.3443 27.9485 34.0269 28.08 33.6959 28.08H24.9599C24.6289 28.08 24.3115 27.9485 24.0774 27.7144C23.8434 27.4804 23.7119 27.163 23.7119 26.832V19.968Z" stroke="white" stroke-width="2" stroke-linecap="round" stroke-linejoin="round"/>
<path d="M27.4559 28.08V21.84H31.1999V28.08" stroke="white" stroke-width="2" stroke-linecap="round" stroke-linejoin="round"/>
</g>
<g clip-path="url(#clip1)">
<path d="M75.4042 17.2286C75.0855 16.9098 74.7071 16.6568 74.2906 16.4842C73.8741 16.3117 73.4277 16.2228 72.9769 16.2228C72.526 16.2228 72.0796 16.3117 71.6631 16.4842C71.2466 16.6568 70.8682 16.9098 70.5495 17.2286L69.8881 17.8901L69.2266 17.2286C68.5828 16.5848 67.7097 16.2232 66.7993 16.2232C65.8888 16.2232 65.0157 16.5848 64.3719 17.2286C63.7281 17.8724 63.3665 18.7455 63.3665 19.656C63.3665 20.5664 63.7281 21.4396 64.3719 22.0833L65.0333 22.7448L69.8881 27.5995L74.7428 22.7448L75.4042 22.0833C75.7231 21.7646 75.976 21.3862 76.1486 20.9697C76.3212 20.5532 76.41 20.1068 76.41 19.656C76.41 19.2051 76.3212 18.7587 76.1486 18.3422C75.976 17.9257 75.7231 17.5473 75.4042 17.2286V17.2286Z" stroke="white" stroke-width="2" stroke-linecap="round" stroke-linejoin="round"/>
</g>
<g clip-path="url(#clip2)">
<path d="M163.488 28.08C166.934 28.08 169.728 25.2862 169.728 21.84C169.728 18.3937 166.934 15.6 163.488 15.6C160.042 15.6 157.248 18.3937 157.248 21.84C157.248 25.2862 160.042 28.08 163.488 28.08Z" stroke="white" stroke-width="2" stroke-linecap="round" stroke-linejoin="round"/>
<path d="M165.36 19.968H161.616V23.712H165.36V19.968Z" stroke="white" stroke-width="2" stroke-linecap="round" stroke-linejoin="round"/>
</g>
<path d="M209.664 27.456V26.208C209.664 25.546 209.401 24.9111 208.933 24.443C208.465 23.9749 207.83 23.712 207.168 23.712H202.176C201.514 23.712 200.879 23.9749 200.411 24.443C199.943 24.9111 199.68 25.546 199.68 26.208V27.456" stroke="white" stroke-width="2" stroke-linecap="round" stroke-linejoin="round"/>
<path d="M204.672 21.216C206.05 21.216 207.168 20.0985 207.168 18.72C207.168 17.3415 206.05 16.224 204.672 16.224C203.293 16.224 202.176 17.3415 202.176 18.72C202.176 20.0985 203.293 21.216 204.672 21.216Z" stroke="white" stroke-width="2" stroke-linecap="round" stroke-linejoin="round"/>
<path d="M116.688 32.76C122.719 32.76 127.608 27.871 127.608 21.84C127.608 15.8091 122.719 10.92 116.688 10.92C110.657 10.92 105.768 15.8091 105.768 21.84C105.768 27.871 110.657 32.76 116.688 32.76Z" stroke="white" stroke-width="2" stroke-linecap="round" stroke-linejoin="round"/>
<path d="M116.688 17.472V26.208" stroke="white" stroke-width="2" stroke-linecap="round" stroke-linejoin="round"/>
<path d="M112.32 21.84H121.056" stroke="white" stroke-width="2" stroke-linecap="round" stroke-linejoin="round"/>
<defs>
<clipPath id="clip0">
<rect width="14.976" height="14.976" fill="white" transform="translate(21.84 14.352)"/>
</clipPath>
<clipPath id="clip1">
<rect width="14.976" height="14.976" fill="white" transform="translate(62.4 14.352)"/>
</clipPath>
<clipPath id="clip2">
<rect width="14.976" height="14.976" fill="white" transform="translate(156 14.352)"/>
</clipPath>
</defs>
</svg>
