<svg width="234" height="152" viewBox="0 0 234 152" fill="none" xmlns="http://www.w3.org/2000/svg">
<path d="M67.662 142.78L68.922 138.46L70.236 142.78H67.662ZM71.082 145.066L72.18 148H74.952L70.362 135.598H67.5L62.892 148H65.7L66.798 145.066H71.082ZM81.9233 143.77C81.9233 144.994 81.0413 145.804 79.9793 145.804C78.9173 145.804 78.0353 145.012 78.0353 143.77C78.0353 142.546 78.8993 141.772 79.9793 141.772C80.9873 141.772 81.9233 142.528 81.9233 143.77ZM84.4613 148V135.022H81.9773V140.62C81.5633 139.846 80.5733 139.414 79.5113 139.414C77.3513 139.414 75.4433 141.124 75.4433 143.824C75.4433 146.488 77.3513 148.18 79.5113 148.18C80.5733 148.18 81.5633 147.73 81.9773 146.956V148H84.4613ZM92.7515 143.77C92.7515 144.994 91.8695 145.804 90.8075 145.804C89.7455 145.804 88.8635 145.012 88.8635 143.77C88.8635 142.546 89.7275 141.772 90.8075 141.772C91.8155 141.772 92.7515 142.528 92.7515 143.77ZM95.2895 148V135.022H92.8055V140.62C92.3915 139.846 91.4015 139.414 90.3395 139.414C88.1795 139.414 86.2715 141.124 86.2715 143.824C86.2715 146.488 88.1795 148.18 90.3395 148.18C91.4015 148.18 92.3915 147.73 92.8055 146.956V148H95.2895ZM101.62 144.364C101.62 146.596 103.438 148.198 106.12 148.198C108.334 148.198 110.53 147.01 110.584 144.562C110.638 143.392 110.188 141.682 107.182 140.818L105.706 140.35C104.482 140.008 104.374 139.414 104.374 139.09C104.374 138.352 105.058 137.848 105.976 137.848C107.038 137.848 107.578 138.406 107.578 139.252H110.206C110.206 136.876 108.406 135.454 106.012 135.454C103.636 135.454 101.746 136.948 101.746 139.162C101.746 140.296 102.214 141.862 104.95 142.726L106.444 143.14C107.686 143.5 107.956 143.986 107.938 144.544C107.92 145.354 107.2 145.858 106.12 145.858C104.914 145.858 104.32 145.156 104.266 144.364H101.62ZM116.309 145.696C115.283 145.696 114.419 144.94 114.419 143.77C114.419 142.618 115.283 141.862 116.309 141.862C117.371 141.862 118.217 142.618 118.217 143.77C118.217 144.94 117.371 145.696 116.309 145.696ZM116.309 148.144C118.685 148.144 120.683 146.416 120.683 143.77C120.683 141.106 118.685 139.414 116.309 139.414C113.915 139.414 111.953 141.106 111.953 143.77C111.953 146.416 113.915 148.144 116.309 148.144ZM122.476 135.022V148H124.978V135.022H122.476ZM132.693 144.04C132.693 145.318 131.955 145.75 131.181 145.75C130.605 145.75 129.687 145.426 129.687 144.076V139.594H127.185V144.616C127.185 147.01 128.625 148.18 130.515 148.18C131.325 148.18 132.243 147.694 132.693 146.848V148H135.195V139.594H132.693V144.04ZM140.782 139.594V136.372H138.298V139.594H136.768V141.574H138.298V148H140.782V141.574H142.546V139.594H140.782ZM146.564 139.594H144.08V148H146.564V139.594ZM143.756 136.48C143.756 137.29 144.476 137.956 145.322 137.956C146.186 137.956 146.852 137.29 146.852 136.48C146.852 135.634 146.168 135.022 145.322 135.022C144.476 135.022 143.756 135.652 143.756 136.48ZM152.713 145.696C151.687 145.696 150.823 144.94 150.823 143.77C150.823 142.618 151.687 141.862 152.713 141.862C153.775 141.862 154.621 142.618 154.621 143.77C154.621 144.94 153.775 145.696 152.713 145.696ZM152.713 148.144C155.089 148.144 157.087 146.416 157.087 143.77C157.087 141.106 155.089 139.414 152.713 139.414C150.319 139.414 148.357 141.106 148.357 143.77C148.357 146.416 150.319 148.144 152.713 148.144ZM161.383 143.554C161.383 142.276 162.049 141.844 162.931 141.844C163.777 141.844 164.389 142.384 164.389 143.518V148H166.891V142.978C166.891 140.584 165.703 139.414 163.813 139.414C162.805 139.414 161.833 139.972 161.383 140.818V139.594H158.881V148H161.383V143.554Z" fill="black"/>
<path d="M117.2 53.2892C116.809 52.8987 116.176 52.8987 115.786 53.2892L109.422 59.6531C109.031 60.0437 109.031 60.6768 109.422 61.0674C109.812 61.4579 110.445 61.4579 110.836 61.0674L116.493 55.4105L122.15 61.0674C122.54 61.4579 123.173 61.4579 123.564 61.0674C123.954 60.6768 123.954 60.0437 123.564 59.6531L117.2 53.2892ZM117.493 123.004L117.493 53.9963L115.493 53.9963L115.493 123.004L117.493 123.004Z" fill="#00C390"/>
<rect width="234" height="43.056" rx="21.528" fill="#00C390"/>
<g clip-path="url(#clip0)">
<path d="M23.7119 19.968L29.3279 15.6L34.9439 19.968V26.832C34.9439 27.163 34.8124 27.4804 34.5784 27.7144C34.3443 27.9485 34.0269 28.08 33.6959 28.08H24.9599C24.6289 28.08 24.3115 27.9485 24.0774 27.7144C23.8434 27.4804 23.7119 27.163 23.7119 26.832V19.968Z" stroke="white" stroke-width="2" stroke-linecap="round" stroke-linejoin="round"/>
<path d="M27.4559 28.08V21.84H31.1999V28.08" stroke="white" stroke-width="2" stroke-linecap="round" stroke-linejoin="round"/>
</g>
<g clip-path="url(#clip1)">
<path d="M75.4042 17.2286C75.0855 16.9098 74.7071 16.6568 74.2906 16.4842C73.8741 16.3117 73.4277 16.2228 72.9769 16.2228C72.526 16.2228 72.0796 16.3117 71.6631 16.4842C71.2466 16.6568 70.8682 16.9098 70.5495 17.2286L69.8881 17.8901L69.2266 17.2286C68.5828 16.5848 67.7097 16.2232 66.7993 16.2232C65.8888 16.2232 65.0157 16.5848 64.3719 17.2286C63.7281 17.8724 63.3665 18.7455 63.3665 19.656C63.3665 20.5664 63.7281 21.4396 64.3719 22.0833L65.0333 22.7448L69.8881 27.5995L74.7428 22.7448L75.4042 22.0833C75.7231 21.7646 75.976 21.3862 76.1486 20.9697C76.3212 20.5532 76.41 20.1068 76.41 19.656C76.41 19.2051 76.3212 18.7587 76.1486 18.3422C75.976 17.9257 75.7231 17.5473 75.4042 17.2286V17.2286Z" stroke="white" stroke-width="2" stroke-linecap="round" stroke-linejoin="round"/>
</g>
<g clip-path="url(#clip2)">
<path d="M163.488 28.08C166.934 28.08 169.728 25.2862 169.728 21.84C169.728 18.3937 166.934 15.6 163.488 15.6C160.042 15.6 157.248 18.3937 157.248 21.84C157.248 25.2862 160.042 28.08 163.488 28.08Z" stroke="white" stroke-width="2" stroke-linecap="round" stroke-linejoin="round"/>
<path d="M165.36 19.968H161.616V23.712H165.36V19.968Z" stroke="white" stroke-width="2" stroke-linecap="round" stroke-linejoin="round"/>
</g>
<path d="M209.664 27.456V26.208C209.664 25.546 209.401 24.9111 208.933 24.443C208.465 23.9749 207.83 23.712 207.168 23.712H202.176C201.514 23.712 200.879 23.9749 200.411 24.443C199.943 24.9111 199.68 25.546 199.68 26.208V27.456" stroke="white" stroke-width="2" stroke-linecap="round" stroke-linejoin="round"/>
<path d="M204.672 21.216C206.05 21.216 207.168 20.0985 207.168 18.72C207.168 17.3415 206.05 16.224 204.672 16.224C203.293 16.224 202.176 17.3415 202.176 18.72C202.176 20.0985 203.293 21.216 204.672 21.216Z" stroke="white" stroke-width="2" stroke-linecap="round" stroke-linejoin="round"/>
<path d="M116.688 32.76C122.719 32.76 127.608 27.871 127.608 21.84C127.608 15.8091 122.719 10.92 116.688 10.92C110.657 10.92 105.768 15.8091 105.768 21.84C105.768 27.871 110.657 32.76 116.688 32.76Z" stroke="white" stroke-width="2" stroke-linecap="round" stroke-linejoin="round"/>
<path d="M116.688 17.472V26.208" stroke="white" stroke-width="2" stroke-linecap="round" stroke-linejoin="round"/>
<path d="M112.32 21.84H121.056" stroke="white" stroke-width="2" stroke-linecap="round" stroke-linejoin="round"/>
<defs>
<clipPath id="clip0">
<rect width="14.976" height="14.976" fill="white" transform="translate(21.84 14.352)"/>
</clipPath>
<clipPath id="clip1">
<rect width="14.976" height="14.976" fill="white" transform="translate(62.4 14.352)"/>
</clipPath>
<clipPath id="clip2">
<rect width="14.976" height="14.976" fill="white" transform="translate(156 14.352)"/>
</clipPath>
</defs>
</svg>
