<svg width="243" height="152" viewBox="0 0 243 152" fill="none" xmlns="http://www.w3.org/2000/svg">
<path d="M4.086 137.992H6.318C8.28 137.992 9.288 139.774 9.288 141.826C9.288 143.86 8.28 145.606 6.318 145.606H4.086V137.992ZM6.318 148C9.864 148 11.916 145.354 11.916 141.826C11.916 138.298 9.864 135.598 6.318 135.598H1.458V148H6.318ZM16.2571 139.594H13.7731V148H16.2571V139.594ZM13.4491 136.48C13.4491 137.29 14.1691 137.956 15.0151 137.956C15.8791 137.956 16.5451 137.29 16.5451 136.48C16.5451 135.634 15.8611 135.022 15.0151 135.022C14.1691 135.022 13.4491 135.652 13.4491 136.48ZM21.8303 144.832C22.4603 144.994 22.6583 145.192 22.6583 145.552C22.6583 145.984 22.1903 146.236 21.6323 146.254C20.9303 146.254 20.4083 145.768 20.3903 145.282H18.0503C18.0503 147.154 19.8683 148.18 21.5603 148.18C23.3243 148.18 25.1963 147.334 25.1963 145.552C25.1963 144.994 24.9443 143.68 22.9103 143.104L21.4883 142.726C20.9843 142.6 20.7683 142.366 20.7503 142.096C20.7323 141.718 21.0743 141.466 21.6323 141.466C22.0463 141.466 22.5683 141.574 22.5863 142.204H24.9443C24.9443 140.134 23.1443 139.414 21.4883 139.414C19.7243 139.414 18.2123 140.566 18.2123 141.808C18.2123 142.582 18.1943 143.878 20.7323 144.544L21.8303 144.832ZM26.4527 143.77C26.4527 146.416 28.6307 148.18 31.0247 148.18C32.5367 148.18 33.8867 147.532 34.6787 146.38L32.6447 144.94C32.3027 145.498 31.6727 145.786 31.0247 145.786C29.9627 145.786 28.9367 144.976 28.9367 143.77C28.9367 142.564 29.9627 141.808 31.0247 141.808C31.6727 141.808 32.3027 142.096 32.6447 142.654L34.6787 141.196C33.8687 140.044 32.5367 139.414 31.0247 139.414C28.6307 139.414 26.4527 141.106 26.4527 143.77ZM40.1603 145.696C39.1343 145.696 38.2703 144.94 38.2703 143.77C38.2703 142.618 39.1343 141.862 40.1603 141.862C41.2223 141.862 42.0683 142.618 42.0683 143.77C42.0683 144.94 41.2223 145.696 40.1603 145.696ZM40.1603 148.144C42.5363 148.144 44.5343 146.416 44.5343 143.77C44.5343 141.106 42.5363 139.414 40.1603 139.414C37.7663 139.414 35.8043 141.106 35.8043 143.77C35.8043 146.416 37.7663 148.144 40.1603 148.144ZM48.7758 148H50.9178L54.4818 139.594H51.7998L49.8558 144.814L47.8938 139.594H45.2298L48.7758 148ZM61.4076 145.228C60.9936 145.786 60.2736 146.02 59.5716 146.02C58.6716 146.02 57.6456 145.588 57.5016 144.616H63.6576C63.6756 144.4 63.6936 144.058 63.6936 143.842C63.6936 141.196 61.7856 139.414 59.3916 139.414C56.9976 139.414 54.9996 141.106 54.9996 143.77C54.9996 146.416 56.9976 148.18 59.3916 148.18C60.8316 148.18 62.3616 147.73 63.2256 146.47L61.4076 145.228ZM57.5376 143.05C57.7356 141.97 58.7256 141.61 59.4096 141.61C60.1296 141.61 61.0296 142.024 61.1736 143.05H57.5376ZM67.902 145.066C67.902 142.834 68.55 141.718 69.99 141.718C70.404 141.718 70.818 141.754 71.268 141.97L71.718 139.72C71.304 139.522 70.872 139.414 70.278 139.414C69.414 139.414 68.334 140.062 67.902 141.628V139.594H65.4V148H67.902V145.066Z" fill="black"/>
<path d="M38.7071 54.2929C38.3166 53.9024 37.6834 53.9024 37.2929 54.2929L30.9289 60.6569C30.5384 61.0474 30.5384 61.6806 30.9289 62.0711C31.3195 62.4616 31.9526 62.4616 32.3431 62.0711L38 56.4142L43.6569 62.0711C44.0474 62.4616 44.6805 62.4616 45.0711 62.0711C45.4616 61.6806 45.4616 61.0474 45.0711 60.6569L38.7071 54.2929ZM39 124.007L39 55L37 55L37 124.007L39 124.007Z" fill="#00C390"/>
<rect x="9" width="234" height="43.056" rx="21.528" fill="#00C390"/>
<g clip-path="url(#clip0)">
<path d="M32.7122 19.968L38.3282 15.6L43.9442 19.968V26.832C43.9442 27.163 43.8127 27.4804 43.5786 27.7144C43.3446 27.9485 43.0271 28.08 42.6962 28.08H33.9602C33.6292 28.08 33.3117 27.9485 33.0777 27.7144C32.8436 27.4804 32.7122 27.163 32.7122 26.832V19.968Z" stroke="white" stroke-width="2" stroke-linecap="round" stroke-linejoin="round"/>
<path d="M36.4561 28.08V21.84H40.2001V28.08" stroke="white" stroke-width="2" stroke-linecap="round" stroke-linejoin="round"/>
</g>
<g clip-path="url(#clip1)">
<path d="M84.404 17.2286C84.0853 16.9098 83.7069 16.6568 83.2904 16.4842C82.8739 16.3117 82.4274 16.2228 81.9766 16.2228C81.5258 16.2228 81.0794 16.3117 80.6629 16.4842C80.2464 16.6568 79.868 16.9098 79.5493 17.2286L78.8878 17.8901L78.2264 17.2286C77.5826 16.5848 76.7095 16.2232 75.799 16.2232C74.8886 16.2232 74.0154 16.5848 73.3717 17.2286C72.7279 17.8724 72.3662 18.7455 72.3662 19.656C72.3662 20.5664 72.7279 21.4396 73.3717 22.0833L74.0331 22.7448L78.8878 27.5995L83.7425 22.7448L84.404 22.0833C84.7228 21.7646 84.9758 21.3862 85.1484 20.9697C85.3209 20.5532 85.4098 20.1068 85.4098 19.656C85.4098 19.2051 85.3209 18.7587 85.1484 18.3422C84.9758 17.9257 84.7228 17.5473 84.404 17.2286V17.2286Z" stroke="white" stroke-width="2" stroke-linecap="round" stroke-linejoin="round"/>
</g>
<g clip-path="url(#clip2)">
<path d="M172.488 28.08C175.934 28.08 178.728 25.2862 178.728 21.84C178.728 18.3937 175.934 15.6 172.488 15.6C169.042 15.6 166.248 18.3937 166.248 21.84C166.248 25.2862 169.042 28.08 172.488 28.08Z" stroke="white" stroke-width="2" stroke-linecap="round" stroke-linejoin="round"/>
<path d="M174.36 19.968H170.616V23.712H174.36V19.968Z" stroke="white" stroke-width="2" stroke-linecap="round" stroke-linejoin="round"/>
</g>
<path d="M218.664 27.456V26.208C218.664 25.546 218.401 24.9111 217.933 24.443C217.465 23.9749 216.83 23.712 216.168 23.712H211.176C210.514 23.712 209.879 23.9749 209.411 24.443C208.943 24.9111 208.68 25.546 208.68 26.208V27.456" stroke="white" stroke-width="2" stroke-linecap="round" stroke-linejoin="round"/>
<path d="M213.672 21.216C215.051 21.216 216.168 20.0985 216.168 18.72C216.168 17.3415 215.051 16.224 213.672 16.224C212.294 16.224 211.176 17.3415 211.176 18.72C211.176 20.0985 212.294 21.216 213.672 21.216Z" stroke="white" stroke-width="2" stroke-linecap="round" stroke-linejoin="round"/>
<path d="M125.688 32.76C131.719 32.76 136.608 27.871 136.608 21.84C136.608 15.8091 131.719 10.92 125.688 10.92C119.657 10.92 114.768 15.8091 114.768 21.84C114.768 27.871 119.657 32.76 125.688 32.76Z" stroke="white" stroke-width="2" stroke-linecap="round" stroke-linejoin="round"/>
<path d="M125.688 17.472V26.208" stroke="white" stroke-width="2" stroke-linecap="round" stroke-linejoin="round"/>
<path d="M121.32 21.84H130.056" stroke="white" stroke-width="2" stroke-linecap="round" stroke-linejoin="round"/>
<defs>
<clipPath id="clip0">
<rect width="14.976" height="14.976" fill="white" transform="translate(30.8401 14.352)"/>
</clipPath>
<clipPath id="clip1">
<rect width="14.976" height="14.976" fill="white" transform="translate(71.3999 14.352)"/>
</clipPath>
<clipPath id="clip2">
<rect width="14.976" height="14.976" fill="white" transform="translate(165 14.352)"/>
</clipPath>
</defs>
</svg>
