<svg width="34" height="30" viewBox="0 0 34 30" fill="none" xmlns="http://www.w3.org/2000/svg">
<path d="M29.6867 4.31C28.9537 3.57766 28.0833 2.99672 27.1254 2.60036C26.1675 2.20401 25.1407 2 24.1038 2C23.0669 2 22.0402 2.20401 21.0822 2.60036C20.1243 2.99672 19.254 3.57766 18.5209 4.31L16.9996 5.82914L15.4783 4.31C13.9976 2.83142 11.9894 2.00077 9.89541 2.00077C7.80142 2.00077 5.79319 2.83142 4.31251 4.31C2.83184 5.78857 2 7.79395 2 9.88497C2 11.976 2.83184 13.9814 4.31251 15.4599L5.83382 16.9791L16.9996 28.129L28.1654 16.9791L29.6867 15.4599C30.4201 14.728 31.0019 13.8588 31.3988 12.9023C31.7957 11.9457 32 10.9204 32 9.88497C32 8.84953 31.7957 7.82424 31.3988 6.86767C31.0019 5.9111 30.4201 5.04199 29.6867 4.31V4.31Z" stroke="black" stroke-width="3" stroke-linecap="round" stroke-linejoin="round"/>
</svg>
