<svg width="36" height="36" viewBox="0 0 36 36" fill="none" xmlns="http://www.w3.org/2000/svg">
<path d="M24 19.5V31.5" stroke="#00C390" stroke-width="2" stroke-linecap="round" stroke-linejoin="round"/>
<path d="M12 19.5V31.5" stroke="#00C390" stroke-width="2" stroke-linecap="round" stroke-linejoin="round"/>
<path d="M18 22.5V34.5" stroke="#00C390" stroke-width="2" stroke-linecap="round" stroke-linejoin="round"/>
<path d="M30 24.8696C31.5769 24.179 32.8681 22.9669 33.6571 21.4369C34.4461 19.9069 34.6847 18.152 34.3329 16.4668C33.9811 14.7817 33.0603 13.2689 31.7251 12.1823C30.3898 11.0958 28.7215 10.5016 27 10.4996H25.11C24.6345 8.65835 23.7283 6.95649 22.466 5.53427C21.2036 4.11205 19.6214 3.01018 17.8496 2.3195C16.0779 1.62882 14.1673 1.36909 12.2755 1.56174C10.3837 1.75438 8.5647 2.39387 6.96853 3.42749C5.37236 4.46112 4.04468 5.85929 3.09495 7.50676C2.14521 9.15423 1.6006 11.0038 1.50601 12.9031C1.41142 14.8024 1.76955 16.6969 2.5509 18.4306C3.33224 20.1643 4.51442 21.6875 5.99999 22.8746" stroke="#00C390" stroke-width="2" stroke-linecap="round" stroke-linejoin="round"/>
</svg>
