<svg width="234" height="152" viewBox="0 0 234 152" fill="none" xmlns="http://www.w3.org/2000/svg">
<path d="M144.792 144.364C144.792 146.596 146.61 148.198 149.292 148.198C151.506 148.198 153.702 147.01 153.756 144.562C153.81 143.392 153.36 141.682 150.354 140.818L148.878 140.35C147.654 140.008 147.546 139.414 147.546 139.09C147.546 138.352 148.23 137.848 149.148 137.848C150.21 137.848 150.75 138.406 150.75 139.252H153.378C153.378 136.876 151.578 135.454 149.184 135.454C146.808 135.454 144.918 136.948 144.918 139.162C144.918 140.296 145.386 141.862 148.122 142.726L149.616 143.14C150.858 143.5 151.128 143.986 151.11 144.544C151.092 145.354 150.372 145.858 149.292 145.858C148.086 145.858 147.492 145.156 147.438 144.364H144.792ZM158.563 137.992H160.795C162.757 137.992 163.765 139.774 163.765 141.826C163.765 143.86 162.757 145.606 160.795 145.606H158.563V137.992ZM160.795 148C164.341 148 166.393 145.354 166.393 141.826C166.393 138.298 164.341 135.598 160.795 135.598H155.935V148H160.795ZM178.957 137.488C177.877 136.246 176.221 135.454 174.295 135.454C170.749 135.454 167.941 138.316 167.941 141.826C167.941 145.318 170.749 148.18 174.295 148.18C177.859 148.18 180.343 146.128 180.343 141.484H173.971V143.626H177.301C177.301 144.922 175.627 145.768 174.295 145.768C172.207 145.768 170.587 143.968 170.587 141.826C170.587 139.666 172.207 137.902 174.295 137.902C175.375 137.902 176.311 138.388 177.013 139.162L178.957 137.488Z" fill="black"/>
<path d="M163.2 53.2892C162.809 52.8987 162.176 52.8987 161.786 53.2892L155.422 59.6531C155.031 60.0437 155.031 60.6768 155.422 61.0674C155.812 61.4579 156.445 61.4579 156.836 61.0674L162.493 55.4105L168.15 61.0674C168.54 61.4579 169.173 61.4579 169.564 61.0674C169.954 60.6768 169.954 60.0437 169.564 59.6531L163.2 53.2892ZM163.493 123.004L163.493 53.9963L161.493 53.9963L161.493 123.004L163.493 123.004Z" fill="#00C390"/>
<rect width="234" height="43.056" rx="21.528" fill="#00C390"/>
<g clip-path="url(#clip0)">
<path d="M23.712 19.968L29.328 15.6L34.944 19.968V26.832C34.944 27.163 34.8126 27.4804 34.5785 27.7144C34.3445 27.9485 34.027 28.08 33.696 28.08H24.96C24.629 28.08 24.3116 27.9485 24.0776 27.7144C23.8435 27.4804 23.712 27.163 23.712 26.832V19.968Z" stroke="white" stroke-width="2" stroke-linecap="round" stroke-linejoin="round"/>
<path d="M27.4561 28.08V21.84H31.2001V28.08" stroke="white" stroke-width="2" stroke-linecap="round" stroke-linejoin="round"/>
</g>
<g clip-path="url(#clip1)">
<path d="M75.4042 17.2286C75.0854 16.9098 74.707 16.6568 74.2905 16.4842C73.874 16.3117 73.4276 16.2228 72.9768 16.2228C72.526 16.2228 72.0796 16.3117 71.6631 16.4842C71.2466 16.6568 70.8682 16.9098 70.5494 17.2286L69.888 17.8901L69.2266 17.2286C68.5828 16.5848 67.7096 16.2232 66.7992 16.2232C65.8888 16.2232 65.0156 16.5848 64.3718 17.2286C63.7281 17.8724 63.3664 18.7455 63.3664 19.656C63.3664 20.5664 63.7281 21.4396 64.3718 22.0833L65.0333 22.7448L69.888 27.5995L74.7427 22.7448L75.4042 22.0833C75.723 21.7646 75.976 21.3862 76.1485 20.9697C76.3211 20.5532 76.4099 20.1068 76.4099 19.656C76.4099 19.2051 76.3211 18.7587 76.1485 18.3422C75.976 17.9257 75.723 17.5473 75.4042 17.2286V17.2286Z" stroke="white" stroke-width="2" stroke-linecap="round" stroke-linejoin="round"/>
</g>
<g clip-path="url(#clip2)">
<path d="M163.488 28.08C166.934 28.08 169.728 25.2862 169.728 21.84C169.728 18.3937 166.934 15.6 163.488 15.6C160.042 15.6 157.248 18.3937 157.248 21.84C157.248 25.2862 160.042 28.08 163.488 28.08Z" stroke="white" stroke-width="2" stroke-linecap="round" stroke-linejoin="round"/>
<path d="M165.36 19.968H161.616V23.712H165.36V19.968Z" stroke="white" stroke-width="2" stroke-linecap="round" stroke-linejoin="round"/>
</g>
<path d="M209.664 27.456V26.208C209.664 25.546 209.401 24.9111 208.933 24.443C208.465 23.9749 207.83 23.712 207.168 23.712H202.176C201.514 23.712 200.879 23.9749 200.411 24.443C199.943 24.9111 199.68 25.546 199.68 26.208V27.456" stroke="white" stroke-width="2" stroke-linecap="round" stroke-linejoin="round"/>
<path d="M204.672 21.216C206.051 21.216 207.168 20.0985 207.168 18.72C207.168 17.3415 206.051 16.224 204.672 16.224C203.294 16.224 202.176 17.3415 202.176 18.72C202.176 20.0985 203.294 21.216 204.672 21.216Z" stroke="white" stroke-width="2" stroke-linecap="round" stroke-linejoin="round"/>
<path d="M116.688 32.76C122.719 32.76 127.608 27.871 127.608 21.84C127.608 15.8091 122.719 10.92 116.688 10.92C110.657 10.92 105.768 15.8091 105.768 21.84C105.768 27.871 110.657 32.76 116.688 32.76Z" stroke="white" stroke-width="2" stroke-linecap="round" stroke-linejoin="round"/>
<path d="M116.688 17.472V26.208" stroke="white" stroke-width="2" stroke-linecap="round" stroke-linejoin="round"/>
<path d="M112.32 21.84H121.056" stroke="white" stroke-width="2" stroke-linecap="round" stroke-linejoin="round"/>
<defs>
<clipPath id="clip0">
<rect width="14.976" height="14.976" fill="white" transform="translate(21.84 14.352)"/>
</clipPath>
<clipPath id="clip1">
<rect width="14.976" height="14.976" fill="white" transform="translate(62.4 14.352)"/>
</clipPath>
<clipPath id="clip2">
<rect width="14.976" height="14.976" fill="white" transform="translate(156 14.352)"/>
</clipPath>
</defs>
</svg>
