<svg width="200" height="16" viewBox="0 0 200 16" fill="none" xmlns="http://www.w3.org/2000/svg">
<path fill-rule="evenodd" clip-rule="evenodd" d="M100.029 15.0468C104.1 15.0468 107.4 11.7469 107.4 7.67625C107.4 3.60558 104.1 0.305664 100.029 0.305664C95.9586 0.305664 92.6587 3.60558 92.6587 7.67625C92.6587 11.7469 95.9586 15.0468 100.029 15.0468Z" fill="#DDDDDD"/>
<path fill-rule="evenodd" clip-rule="evenodd" d="M53.6997 15.0468C57.7704 15.0468 61.0703 11.7469 61.0703 7.67625C61.0703 3.60558 57.7704 0.305664 53.6997 0.305664C49.629 0.305664 46.3291 3.60558 46.3291 7.67625C46.3291 11.7469 49.629 15.0468 53.6997 15.0468Z" fill="black"/>
<path fill-rule="evenodd" clip-rule="evenodd" d="M192.347 14.7412C196.418 14.7412 199.718 11.4413 199.718 7.37059C199.718 3.29992 196.418 0 192.347 0C188.276 0 184.977 3.29992 184.977 7.37059C184.977 11.4413 188.276 14.7412 192.347 14.7412Z" fill="#DDDDDD"/>
<path fill-rule="evenodd" clip-rule="evenodd" d="M146.018 14.7412C150.088 14.7412 153.388 11.4413 153.388 7.37059C153.388 3.29992 150.088 0 146.018 0C141.947 0 138.647 3.29992 138.647 7.37059C138.647 11.4413 141.947 14.7412 146.018 14.7412Z" fill="#DDDDDD"/>
<path fill-rule="evenodd" clip-rule="evenodd" d="M7.37059 15.0468C11.4413 15.0468 14.7412 11.7469 14.7412 7.67625C14.7412 3.60558 11.4413 0.305664 7.37059 0.305664C3.29992 0.305664 0 3.60558 0 7.67625C0 11.7469 3.29992 15.0468 7.37059 15.0468Z" fill="#DDDDDD"/>
</svg>
