<svg width="36" height="36" viewBox="0 0 36 36" fill="none" xmlns="http://www.w3.org/2000/svg">
<path d="M30 26.3696C31.5769 25.679 32.8681 24.4669 33.6571 22.9369C34.4461 21.4069 34.6847 19.652 34.3329 17.9668C33.9811 16.2817 33.0603 14.7689 31.7251 13.6823C30.3898 12.5958 28.7215 12.0016 27 11.9996H25.11C24.6345 10.1584 23.7283 8.45649 22.466 7.03427C21.2036 5.61205 19.6214 4.51018 17.8496 3.8195C16.0779 3.12882 14.1673 2.8691 12.2755 3.06174C10.3837 3.25438 8.5647 3.89387 6.96853 4.92749C5.37236 5.96112 4.04468 7.3593 3.09495 9.00676C2.14521 10.6542 1.6006 12.5038 1.50601 14.4031C1.41142 16.3024 1.76955 18.1969 2.5509 19.9306C3.33224 21.6643 4.51442 23.1875 5.99999 24.3746" stroke="#00C390" stroke-width="2" stroke-linecap="round" stroke-linejoin="round"/>
<path d="M12 24H12.015" stroke="#00C390" stroke-width="2" stroke-linecap="round" stroke-linejoin="round"/>
<path d="M12 30H12.015" stroke="#00C390" stroke-width="2" stroke-linecap="round" stroke-linejoin="round"/>
<path d="M18 27H18.015" stroke="#00C390" stroke-width="2" stroke-linecap="round" stroke-linejoin="round"/>
<path d="M18 33H18.015" stroke="#00C390" stroke-width="2" stroke-linecap="round" stroke-linejoin="round"/>
<path d="M24 24H24.015" stroke="#00C390" stroke-width="2" stroke-linecap="round" stroke-linejoin="round"/>
<path d="M24 30H24.015" stroke="#00C390" stroke-width="2" stroke-linecap="round" stroke-linejoin="round"/>
</svg>
